<?xml version="1.0" encoding="utf-8"?>
<!-- Generator: Adobe Adobe Illustrator 24.2.0, SVG Export Plug-In . SVG Version: 6.00 Build 0)  -->
<svg version="1.1" id="レイヤー_1" xmlns="http://www.w3.org/2000/svg" xmlns:xlink="http://www.w3.org/1999/xlink" x="0px"
	 y="0px" viewBox="0 0 70 70" style="enable-background:new 0 0 70 70;" xml:space="preserve">
<style type="text/css">
	.st0{fill:none;stroke:#000000;stroke-linecap:round;stroke-linejoin:round;stroke-miterlimit:10;}
</style>
<path class="st0" d="M22.09,55.43L19.74,19.1H50.6l-2.34,36.33c-0.1,1.53-1.37,2.71-2.89,2.71H24.98
	C23.45,58.14,22.18,56.96,22.09,55.43z"/>
<path class="st0" d="M17.9,18.03l-0.13-1.58c-0.05-0.61,0.37-1.13,0.91-1.13h32.63c0.54,0,0.96,0.52,0.91,1.13l-0.13,1.58
	c-0.04,0.54-0.44,0.95-0.91,0.95H18.81C18.34,18.98,17.94,18.57,17.9,18.03z"/>
<path class="st0" d="M29.66,15.32v-2.23c0-0.68,0.55-1.23,1.23-1.23h8.56c0.68,0,1.23,0.55,1.23,1.23v2.23H29.66z"/>
<line class="st0" x1="27.66" y1="26.96" x2="29.66" y2="49.45"/>
<line class="st0" x1="35" y1="26.96" x2="35.17" y2="49.45"/>
<line class="st0" x1="42.33" y1="26.96" x2="40.68" y2="49.45"/>
</svg>
